<?xml version="1.0" encoding="UTF-8"?>
<!-- This Source Code Form is subject to the terms of the Mozilla Public
   - License, v. 2.0. If a copy of the MPL was not distributed with this
   - file, You can obtain one at http://mozilla.org/MPL/2.0/. -->
<!-- Generated by mobile/ios/GeckoTestBrowser/tools/dejavu_assets.py from mobile/android/fenix/app/src/main/res/drawable/dejavu_logo.xml. Do not edit; run the script. -->
<svg xmlns="http://www.w3.org/2000/svg" width="108" height="108" viewBox="0 0 108 108">
  <defs>
    <linearGradient id="gradient1" gradientUnits="userSpaceOnUse" x1="0" y1="0" x2="108" y2="108">
      <stop offset="0" stop-color="#FFEDC2"/>
      <stop offset="0.55" stop-color="#FFD67A"/>
      <stop offset="1" stop-color="#F2B84B"/>
    </linearGradient>
    <radialGradient id="gradient2" gradientUnits="userSpaceOnUse" cx="32" cy="24" r="81">
      <stop offset="0" stop-color="#FFFFFF" stop-opacity="0.251"/>
      <stop offset="1" stop-color="#FFFFFF" stop-opacity="0"/>
    </radialGradient>
  </defs>
  <path fill="url(#gradient1)" d="M0 54 A54 54 0 1 0 108 54 A54 54 0 1 0 0 54 Z"/>
  <path fill="url(#gradient2)" d="M0 54 A54 54 0 1 0 108 54 A54 54 0 1 0 0 54 Z"/>
  <g transform="translate(54 54) scale(1.4) translate(-54 -54)">
    <path fill="#5A452A" fill-opacity="0.28" d="M44.5 47.5 A16.5 16.5 0 1 0 77.5 47.5 A16.5 16.5 0 1 0 44.5 47.5 Z"/>
    <path fill="#5A452A" d="M30.5 60.5 A16.5 16.5 0 1 0 63.5 60.5 A16.5 16.5 0 1 0 30.5 60.5 Z"/>
  </g>
</svg>
